<svg version="1.1" viewBox="0.0 0.0 192.0 192.0" fill="none" stroke="none" stroke-linecap="square" stroke-miterlimit="10" xmlns:xlink="http://www.w3.org/1999/xlink" xmlns="http://www.w3.org/2000/svg"><clipPath id="p.0"><path d="m0 0l192.0 0l0 192.0l-192.0 0l0 -192.0z" clip-rule="nonzero"/></clipPath><g clip-path="url(#p.0)"><path fill="#000000" fill-opacity="0.0" d="m0 0l192.0 0l0 192.0l-192.0 0z" fill-rule="evenodd"/><path fill="#000000" d="m0.8432638 95.8485l0 0c0 -52.323547 42.529423 -94.74016 94.99213 -94.74016l0 0c25.193481 0 49.355103 9.9815235 67.16957 27.748749c17.814484 17.767227 27.822556 41.864754 27.822556 66.99141l0 0c0 52.32354 -42.52942 94.74015 -94.99213 94.74015l0 0c-52.4627 0 -94.99213 -42.41661 -94.99213 -94.74015z" fill-rule="evenodd"/><path stroke="#000000" stroke-width="1.0" stroke-linejoin="round" stroke-linecap="butt" d="m0.8432638 95.8485l0 0c0 -52.323547 42.529423 -94.74016 94.99213 -94.74016l0 0c25.193481 0 49.355103 9.9815235 67.16957 27.748749c17.814484 17.767227 27.822556 41.864754 27.822556 66.99141l0 0c0 52.32354 -42.52942 94.74015 -94.99213 94.74015l0 0c-52.4627 0 -94.99213 -42.41661 -94.99213 -94.74015z" fill-rule="evenodd"/><path fill="#000000" fill-opacity="0.0" d="m0.60259265 9.719888l94.55118 0l0 92.8189l-94.55118 0z" fill-rule="evenodd"/><path fill="#ffffff" d="m70.60259 56.84989l29.5625 0l0 2.3125l-1.625 0q-1.625 0 -4.75 1.4375q-3.125 1.4375 -5.6875 4.125q-2.5625 2.6875 -6.3125 8.75l-20.4375 32.1875l0 21.25q0 7.8125076 1.75 9.750008q2.375 2.625 7.5 2.625l2.75 0l0 2.3125l-36.0 0l0 -2.3125l3.0 0q5.375 0 7.625 -3.25q1.375 -2.0 1.375 -9.125008l0 -20.0625l-23.25 -35.5q-4.125 -6.25 -5.59375 -7.8125q-1.46875 -1.5625 -6.09375 -3.75q-1.25 -0.625 -3.625 -0.625l0 -2.3125l36.25 0l0 2.3125l-1.875 0q-2.9375 0 -5.40625 1.375q-2.46875 1.375 -2.46875 4.125q0 2.25 3.8125 8.125l17.6875 27.3125l16.625 -26.125q3.75 -5.875 3.75 -8.75q0 -1.75 -0.90625 -3.125q-0.90625 -1.375 -2.59375 -2.15625q-1.6875 -0.78125 -5.0625 -0.78125l0 -2.3125z" fill-rule="nonzero"/><path fill="#000000" fill-opacity="0.0" d="m93.238655 9.775714l59.590553 0l0 79.55906l-59.590553 0z" fill-rule="evenodd"/><path fill="#ffffff" d="m161.36366 98.405716q8.8125 1.875 13.1875 6.0q6.0625 5.75 6.0625 14.0625q0 6.3125 -4.0 12.09375q-4.0 5.78125 -10.96875 8.4375q-6.96875 2.65625 -21.28125 2.65625l-40.000008 0l0 -2.3125l3.1875 0q5.3125 0 7.625 -3.375q1.4375 -2.1875 1.4375 -9.3125l0 -54.75q0 -7.875 -1.8125 -9.937496q-2.4375 -2.75 -7.25 -2.75l-3.1875 0l0 -2.3125l36.625008 0q10.25 0 16.4375 1.5q9.375 2.25 14.3125 7.968746q4.9375 5.71875 4.9375 13.15625q0 6.375 -3.875 11.40625q-3.875 5.03125 -11.4375 7.46875zm-32.75 -3.375q2.3125 0.4375 5.28125 0.65625q2.96875 0.21875 6.53125 0.21875q9.125 0 13.71875 -1.96875q4.59375 -1.96875 7.03125 -6.03125q2.4375 -4.0625 2.4375 -8.875q0 -7.4375 -6.0625 -12.6875q-6.0625 -5.249996 -17.6875 -5.249996q-6.25 0 -11.25 1.375l0 32.562496zm0 40.5q7.25 1.6875 14.3125 1.6875q11.3125 0 17.25 -5.09375q5.9375 -5.09375 5.9375 -12.59375q0 -4.9375 -2.6875 -9.5q-2.6875 -4.5625 -8.75 -7.1875q-6.0625 -2.625 -15.0 -2.625q-3.875 0 -6.625 0.125q-2.75 0.125 -4.4375 0.4375l0 34.75z" fill-rule="nonzero"/></g></svg>